<?xml version="1.0" encoding="utf-8"?>
<!-- Generator: Adobe Illustrator 19.2.1, SVG Export Plug-In . SVG Version: 6.00 Build 0)  -->
<svg version="1.1" id="Layer_1" xmlns="http://www.w3.org/2000/svg" xmlns:xlink="http://www.w3.org/1999/xlink" x="0px" y="0px"
	 viewBox="0 0 1400 600" style="enable-background:new 0 0 1400 600;" xml:space="preserve">
<style type="text/css">
	.st0{fill:#D18828;}
	.st1{fill:#CA471A;}
	.st2{fill:#1E8572;}
	.st3{fill:none;stroke:#D18828;stroke-width:80;stroke-miterlimit:10;}
	.st4{fill:none;stroke:#CA471A;stroke-width:80;stroke-miterlimit:10;}
	.st5{fill:none;stroke:#1E8572;stroke-width:80;stroke-miterlimit:10;}
	.st6{fill:none;stroke:#FFFFFF;stroke-width:80;stroke-miterlimit:10;}
</style>
<ellipse class="st0" cx="124" cy="-146.5" rx="47.5" ry="45"/>
<ellipse class="st1" cx="288.4" cy="-150.9" rx="54.4" ry="48.1"/>
<ellipse class="st2" cx="521.5" cy="-155.3" rx="58.8" ry="50"/>
<line class="st3" x1="-2" y1="119.5" x2="247" y2="119.5"/>
<line class="st3" x1="1400" y1="119.5" x2="426.3" y2="119.5"/>
<line class="st3" x1="218.4" y1="76.3" x2="364.6" y2="222.5"/>
<line class="st3" x1="309.1" y1="221.8" x2="455.4" y2="75.5"/>
<line class="st4" x1="-3.5" y1="39.5" x2="286" y2="39.5"/>
<line class="st4" x1="218.4" y1="-36.8" x2="364.6" y2="109.5"/>
<line class="st4" x1="309.1" y1="108.8" x2="455.4" y2="-37.5"/>
<line class="st5" x1="-1" y1="199.5" x2="248" y2="199.5"/>
<line class="st5" x1="1401" y1="199.5" x2="427.3" y2="199.5"/>
<line class="st5" x1="219.4" y1="188.3" x2="365.6" y2="334.5"/>
<line class="st5" x1="310.1" y1="333.8" x2="456.4" y2="187.5"/>
<line class="st4" x1="1432.8" y1="39.3" x2="375.3" y2="39.3"/>
<line class="st6" x1="16.5" y1="-41.3" x2="837.8" y2="-41.3"/>
</svg>
